<?xml version="1.0" standalone="no"?><!DOCTYPE svg PUBLIC "-//W3C//DTD SVG 1.1//EN" "http://www.w3.org/Graphics/SVG/1.1/DTD/svg11.dtd"><svg width="20" height="20" viewBox="0 0 200 200" version="1.1" xmlns="http://www.w3.org/2000/svg" xmlns:xlink="http://www.w3.org/1999/xlink"><defs><style type="text/css"><![CDATA[
@font-face { font-family: ifont; src: url("//at.alicdn.com/t/font_1442373896_4754455.eot?#iefix") format("embedded-opentype"), url("//at.alicdn.com/t/font_1442373896_4754455.woff") format("woff"), url("//at.alicdn.com/t/font_1442373896_4754455.ttf") format("truetype"), url("//at.alicdn.com/t/font_1442373896_4754455.svg#ifont") format("svg"); }

]]></style></defs><g class="transform-group"><g transform="scale(0.1953125, 0.1953125)"><path d="M535.893 159.131l140.591 140.591c13.2 13.2 13.2 34.593 0 47.786v0c-13.2 13.2-34.593 13.2-47.786 0l-92.805-92.798c-13.2-13.2-34.593-13.2-47.786 0l-233.397 233.397c-13.2 13.2-13.2 34.593 0 47.786l233.397 233.397c13.2 13.2 34.593 13.2 47.786 0l92.805-92.805c13.2-13.2 34.593-13.2 47.786 0v0c13.2 13.2 13.2 34.593 0 47.786l-140.591 140.591c-13.2 13.2-34.593 13.2-47.786 0l-328.976-328.969c-13.2-13.2-13.2-34.593 0-47.786l328.969-328.969c13.2-13.2 34.601-13.2 47.793-0.007zM724.278 395.302v0c13.2-13.2 34.593-13.2 47.786 0l92.805 92.805c13.2 13.2 13.2 34.593 0 47.786l-92.805 92.805c-13.2 13.2-34.593 13.2-47.786 0v0c-13.2-13.2-13.2-34.593 0-47.786l45.012-45.012c13.2-13.2 13.2-34.593 0-47.786l-45.012-45.012c-13.2-13.207-13.2-34.601 0-47.801zM512 619.024c59.108 0 107.024-47.916 107.024-107.024s-47.916-107.024-107.024-107.024c-59.108 0-107.024 47.916-107.024 107.024 0 59.108 47.916 107.024 107.024 107.024zM512 567.626c-30.721 0-55.625-24.905-55.625-55.625 0-30.721 24.905-55.625 55.625-55.625s55.625 24.905 55.625 55.625c0 30.721-24.905 55.625-55.625 55.625z" fill="#1e88e5"></path></g></g></svg>