<?xml version="1.0" encoding="utf-8"?>
<!-- Generator: Adobe Illustrator 19.0.0, SVG Export Plug-In . SVG Version: 6.00 Build 0)  -->
<svg version="1.1" id="图层_1" xmlns="http://www.w3.org/2000/svg" xmlns:xlink="http://www.w3.org/1999/xlink" x="0px" y="0px"
	 viewBox="-299 201 200 200" style="enable-background:new -299 201 200 200;" xml:space="preserve">
<style type="text/css">
	.st0{fill:#0F8EE9;}
</style>
<g>
	<path class="st0" d="M-252.7,373.3h-25V221h25V373.3z M-274.3,370h18.3V224.3h-18.3V370z M-181.7,373.3H-209V221h25v106.7
		c0,1-0.7,1.7-1.7,1.7s-1.7-0.7-1.7-1.7V224.3h-18.3V370h24c1,0,1.7,0.7,1.7,1.7C-180,372.7-180.7,373.3-181.7,373.3z M-172.7,314.7
		c-1,0-1.7-0.7-1.7-1.7v-60.3h25V306c0,1-0.7,1.7-1.7,1.7s-1.7-0.7-1.7-1.7v-50H-171v57C-171,314-172,314.7-172.7,314.7
		L-172.7,314.7z M-218.3,373.3h-25V280h25V373.3z M-240,370h18.3v-86.7H-240V370z"/>
	<path class="st0" d="M-181.7,374.3H-210V220h27v107.7c0,1.5-1.1,2.7-2.7,2.7s-2.7-1.1-2.7-2.7V225.3h-16.3V369h23
		c1.5,0,2.7,1.1,2.7,2.7S-180.1,374.3-181.7,374.3z M-208,372.3h26.3c0.4,0,0.7-0.2,0.7-0.7c0-0.4-0.2-0.7-0.7-0.7h-25V223.3h20.3
		v104.3c0,0.4,0.2,0.7,0.7,0.7c0.4,0,0.7-0.2,0.7-0.7V222h-23V372.3z M-217.3,374.3h-27V279h27V374.3z M-242.3,372.3h23V281h-23
		V372.3z M-251.7,374.3h-27V220h27V374.3z M-276.7,372.3h23V222h-23V372.3z M-220.7,371H-241v-88.7h20.3V371z M-239,369h16.3v-84.7
		H-239V369z M-255,371h-20.3V223.3h20.3V371z M-273.3,369h16.3V225.3h-16.3V369z M-172.7,315.7c-1.5,0-2.7-1.1-2.7-2.7v-61.3h27V306
		c0,1.5-1.1,2.7-2.7,2.7s-2.7-1.1-2.7-2.7v-49H-170v56C-170,314.5-171.4,315.7-172.7,315.7z M-173.3,253.7V313
		c0,0.4,0.2,0.7,0.7,0.7c0.2,0,0.7-0.3,0.7-0.7v-58h20.3v51c0,0.4,0.2,0.7,0.7,0.7s0.7-0.2,0.7-0.7v-52.3H-173.3z"/>
</g>
<g>
	<path class="st0" d="M-151,388c-22.3,0-40.7-18.3-40.7-40.7s18.3-40.7,40.7-40.7s40.7,18.3,40.7,40.7S-128.7,388-151,388z
		 M-151,310c-20.7,0-37.3,16.7-37.3,37.3c0,20.7,16.7,37.3,37.3,37.3s37.3-16.7,37.3-37.3C-113.7,326.7-130.3,310-151,310z"/>
	<path class="st0" d="M-151,389c-23,0-41.7-18.7-41.7-41.7c0-23,18.7-41.7,41.7-41.7s41.7,18.7,41.7,41.7
		C-109.3,370.3-128,389-151,389z M-151,307.7c-21.9,0-39.7,17.8-39.7,39.7S-172.9,387-151,387s39.7-17.8,39.7-39.7
		S-129.1,307.7-151,307.7z M-151,385.7c-21.1,0-38.3-17.2-38.3-38.3c0-21.1,17.2-38.3,38.3-38.3s38.3,17.2,38.3,38.3
		C-112.7,368.5-129.9,385.7-151,385.7z M-151,311c-20,0-36.3,16.3-36.3,36.3s16.3,36.3,36.3,36.3s36.3-16.3,36.3-36.3
		S-131,311-151,311z"/>
</g>
<g>
	<path class="st0" d="M-150.7,370c-10.3,0-16.7-6-17-6c-0.7-0.7-0.7-1.7,0-2.3c0.7-0.7,1.7-0.7,2.3,0c0,0,5.7,5.3,14.7,5.3
		c10.3,0,13.3-5.3,13.3-8c0-3.7-2-8-16.3-10.3c-7.3-1.3-10.7-5.3-11.3-9c-0.7-3.7,1.3-7.3,5-9.3c11.3-6.3,24,0.7,24.3,1
		c0.7,0.3,1,1.3,0.7,2.3c-0.3,0.7-1.3,1-2.3,0.7c0,0-11.7-6.3-21.3-1c-2.7,1.3-3.7,3.7-3.3,5.7c0.7,3,4,5.7,8.7,6.3
		c9.7,1.7,19.3,4.3,19.3,13.7C-134,362.7-137.3,370-150.7,370L-150.7,370z"/>
	<path class="st0" d="M-150.7,371c-6,0-11.8-2-17-5.8c-0.1-0.1-0.2-0.1-0.2-0.2h-0.1l-0.3-0.3c-1-1.1-1-2.7,0-3.7
		c1.1-1.1,2.7-1.1,3.7,0c0,0,5.5,5,14,5c10.1,0,12.3-5.2,12.3-7c0-3.2-1.8-7.1-15.5-9.3c-6.7-1.2-11.3-4.9-12.2-9.8
		c-0.7-4.1,1.4-8.2,5.5-10.4c11.3-6.3,23.3-0.1,25.2,1l0,0c1.1,0.6,1.7,2.1,1.2,3.5l-0.1,0.1c-0.6,1.1-2.1,1.7-3.5,1.2l-0.2-0.1
		c-0.1-0.1-11.3-6-20.4-1c-2.5,1.2-3.1,3.2-2.8,4.6c0.6,2.6,3.8,4.9,7.8,5.5c10.5,1.8,20.2,4.8,20.2,14.7
		C-133,363.2-136.7,371-150.7,371z M-167,363.2c0.1,0.1,0.3,0.2,0.5,0.4c1.8,1.3,7.4,5.4,15.8,5.4c12.4,0,15.7-6.5,15.7-10
		c0-7.9-7.4-10.8-18.5-12.7c-4.9-0.7-8.7-3.5-9.5-7.1c-0.5-2.7,1.1-5.4,3.9-6.8c9.7-5.3,21,0.3,22.2,1c0.5,0.1,0.9,0,1-0.1
		c0.1-0.5,0-1-0.2-1l-0.2-0.1c-0.7-0.4-12.5-6.8-23.2-0.9c-3.3,1.8-5.1,5.1-4.5,8.3c0.7,4.1,4.7,7.1,10.5,8.2
		c11.9,1.9,17.2,5.4,17.2,11.3c0,2.5-2.6,9-14.3,9c-9.3,0-15.1-5.4-15.4-5.6c-0.3-0.3-0.7-0.3-0.9,0
		C-167.2,362.6-167.2,362.9-167,363.2z"/>
</g>
<g>
	<path class="st0" d="M-149.7,374.7c-1,0-1.7-0.7-1.7-1.7v-49.3c0-1,0.7-1.7,1.7-1.7s1.7,0.7,1.7,1.7v49.7
		C-148,374-148.7,374.7-149.7,374.7z"/>
	<path class="st0" d="M-149.7,375.7c-1.5,0-2.7-1.1-2.7-2.7v-49.3c0-1.5,1.1-2.7,2.7-2.7s2.7,1.1,2.7,2.7v49.7
		C-147,374.6-148.2,375.7-149.7,375.7z M-149.7,323c-0.4,0-0.7,0.2-0.7,0.7V373c0,0.4,0.2,0.7,0.7,0.7c0.5,0,0.7-0.3,0.7-0.3v-49.7
		C-149,323.2-149.2,323-149.7,323z"/>
</g>
</svg>
