<?xml version="1.0" standalone="no"?><!DOCTYPE svg PUBLIC "-//W3C//DTD SVG 1.1//EN" "http://www.w3.org/Graphics/SVG/1.1/DTD/svg11.dtd"><svg t="1527586601809" class="icon" style="" viewBox="0 0 1273 1024" version="1.1" xmlns="http://www.w3.org/2000/svg" p-id="6989" xmlns:xlink="http://www.w3.org/1999/xlink" width="248.6328125" height="200"><defs><style type="text/css"></style></defs><path d="M636.016466 523.55014c144.334596 0 261.859378-117.356167 261.859378-261.859378C897.875844 117.356167 780.519677 0 636.016466 0c-144.334596 0-261.690762 117.356167-261.690762 261.690762C374.494319 406.025358 491.850486 523.55014 636.016466 523.55014L636.016466 523.55014 636.016466 523.55014zM636.016466 37.601186c123.594928 0 224.089577 100.494648 224.089577 224.089577 0 123.594928-100.494648 224.089577-224.089577 224.089577-123.594928 0-223.920962-100.494648-223.920962-224.089577C412.095505 138.095834 512.590153 37.601186 636.016466 37.601186L636.016466 37.601186 636.016466 37.601186zM1030.913222 434.858554c-35.746419 0-69.30084-11.971678-97.122345-34.734727-8.093529-6.575992-19.896591-5.395686-26.472584 2.529228-6.575992 8.093529-5.395686 19.896591 2.529228 26.472584 34.060267 27.821505 76.888523 43.165487 120.897085 43.165487 105.553104 0 191.378232-85.825128 191.378232-191.209616 0-105.384489-85.825128-191.209616-191.378232-191.209616-44.008562 0-87.005434 15.343982-121.065701 43.165487-8.093529 6.575992-9.10522 18.379055-2.529228 26.472584 6.575992 8.093529 18.54767 9.273835 26.472584 2.697843C961.106537 139.950601 995.504034 127.810308 1030.913222 127.810308c84.644821 0 153.608431 68.794994 153.608431 153.439816C1184.521653 365.894945 1115.558044 434.858554 1030.913222 434.858554L1030.913222 434.858554 1030.913222 434.858554zM906.981064 660.128437c-68.120534-113.309402-210.937593-99.145727-214.984357-98.639881l-116.344476 0c-5.058455-0.168615-120.05401-3.035073-187.500082 93.918656-37.43257 53.619628-92.40112 259.66738-111.791866 345.492508-2.360613 10.116911 4.046764 20.233822 14.163675 22.594434 10.116911 2.360613 20.233822-4.046764 22.425819-14.163675 20.402437-90.040507 74.022065-286.308579 106.058949-332.171908 55.474395-79.923596 154.620122-77.731599 155.969043-77.900214l119.042318-0.168615c1.180306-0.168615 125.786926-12.140293 181.092705 81.272518 0.505846 0.674461 0.843076 1.348921 1.517537 2.191997 33.891652 42.828256 90.714968 235.555409 111.62325 326.776223 2.023382 8.767989 9.779681 14.669521 18.379055 14.669521 1.348921 0 2.866458-0.168615 4.21538-0.505846 10.116911-2.360613 16.524288-12.477523 14.163675-22.594434C1008.487403 929.406883 950.315165 716.614523 906.981064 660.128437L906.981064 660.128437 906.981064 660.128437zM241.288325 472.45974c44.008562 0 87.005434-15.343982 121.065701-43.165487 8.093529-6.575992 9.273835-18.54767 2.697843-26.472584-6.575992-8.093529-18.379055-9.273835-26.472584-2.529228-27.65289 22.76305-61.207311 34.734727-97.122345 34.734727-84.644821 0-153.608431-68.963609-153.608431-153.608431 0-84.644821 68.963609-153.439816 153.608431-153.439816 35.915034 0 69.469455 11.971678 97.122345 34.734727 8.093529 6.575992 19.896591 5.395686 26.472584-2.697843 6.575992-8.093529 5.395686-19.896591-2.697843-26.472584-33.891652-27.821505-76.888523-43.165487-120.897085-43.165487-105.553104 0-191.378232 85.825128-191.378232 191.209616C49.910094 386.634612 135.735221 472.45974 241.288325 472.45974L241.288325 472.45974 241.288325 472.45974zM1271.695702 737.01696c-20.065207-90.546353-40.299028-150.910588-60.19562-179.575169-49.404248-71.324222-134.217685-68.963609-137.252758-68.963609l-80.935287 0.168615c-4.046764-0.505846-101.337724-10.116911-153.439816 63.567924-6.070147 8.430759-4.046764 20.233822 4.55261 26.303968 8.430759 5.901531 20.233822 4.046764 26.303968-4.55261 39.118722-55.30578 117.693397-47.886712 120.559855-47.718096l83.63313 0c0.674461-0.505846 67.614688-1.854767 105.553104 52.776552 11.803063 16.861518 30.687963 59.352544 54.294089 166.085954 2.023382 8.767989 9.779681 14.838136 18.379055 14.838136 1.348921 0 2.697843-0.168615 4.046764-0.505846C1267.648938 757.250782 1274.056315 747.133871 1271.695702 737.01696L1271.695702 737.01696 1271.695702 737.01696zM406.025358 581.047917c5.395686 8.936605 16.861518 11.971678 25.798123 6.575992 8.936605-5.227071 11.971678-16.861518 6.575992-25.798123-49.910094-84.138976-155.125967-73.684835-157.48658-73.178989l-82.284209 0c-3.372304 0-88.354355-2.360613-137.927219 68.963609-20.065207 28.833196-40.299028 89.197431-60.19562 179.575169-2.191997 10.116911 4.21538 20.233822 14.33229 22.425819 1.348921 0.33723 2.697843 0.505846 4.046764 0.505846 8.599374 0 16.524288-6.070147 18.379055-14.838136 18.379055-83.127285 37.601186-142.142598 54.294089-166.085954 37.601186-54.125473 102.686646-52.776552 106.227565-52.776552l84.982052-0.168615C283.610736 526.079368 368.592788 517.985839 406.025358 581.047917L406.025358 581.047917 406.025358 581.047917zM406.025358 581.047917" p-id="6990" fill="#0f8ee9"></path></svg>