<?xml version="1.0" encoding="utf-8"?>
<!-- Generator: Adobe Illustrator 19.0.0, SVG Export Plug-In . SVG Version: 6.00 Build 0)  -->
<svg version="1.1" id="图层_1" xmlns="http://www.w3.org/2000/svg" xmlns:xlink="http://www.w3.org/1999/xlink" x="0px" y="0px"
	 viewBox="-299 201 200 200" style="enable-background:new -299 201 200 200;" xml:space="preserve">
<style type="text/css">
	.st0{fill:#0F8EE9;}
</style>
<g>
	<path class="st0" d="M-227.1,391c-0.1,0-0.1-0.1-0.1-0.1V338l-0.9-0.9c-1.8-1.8-60.5-60.5-61.1-61.1l-1.7-1.7c0,0,0-0.1,0-0.1
		c0,0,0-0.1,0.1-0.1l66.1-66.1c0,0,0,0,0.1,0c0,0,0,0,0.1,0l1.9,1.9l0.5,0.5c17.7,17.7,59,59,60.4,60.4l0.9,0.9h52.8
		c0.1,0,0.1,0.1,0.1,0.1v67.5c0,0.1-0.1,0.1-0.1,0.1h-34.1c-0.1,0-0.1-0.1-0.1-0.1v-4.8c0-0.1,0.1-0.1,0.1-0.1h29.2l0-57.6h-46.4
		v114.1c0,0.1-0.1,0.1-0.1,0.1H-227.1z M-222.2,385.9h57.6l0-109.1h-57.6V385.9z M-276.2,281.9c8.6,8.6,43.5,43.5,43.8,43.8l5.1,5.1
		v-54h-54.1L-276.2,281.9z M-222.2,271.7h54.1l-5.1-5.1c-8.3-8.2-36.3-36.3-43.8-43.8l-5.1-5.1V271.7z M-232.4,222.8
		c-8.3,8.3-43.4,43.4-43.8,43.8l-5.1,5.1h54v-54.1L-232.4,222.8z"/>
	<path class="st0" d="M-159.6,391.5h-67.5c-0.4,0-0.6-0.3-0.6-0.6v-52.6l-0.7-0.7c-1.8-1.8-60.5-60.6-61.1-61.1l-1.8-1.8l0-0.3
		c0-0.2,0.1-0.3,0.2-0.5l66.3-66.3l0.3,0c0.2,0,0.3,0.1,0.4,0.2l2.4,2.4c20.3,20.3,59,59,60.4,60.4l0.7,0.7h52.6
		c0.4,0,0.6,0.3,0.6,0.6v67.5c0,0.3-0.3,0.6-0.6,0.6h-34.1c-0.4,0-0.6-0.3-0.6-0.6v-4.8c0-0.3,0.3-0.6,0.6-0.6h28.7v-56.6H-159
		v113.6C-159,391.2-159.3,391.5-159.6,391.5z M-226.8,390.5h66.8V276.3h47.4v58.6h-29.3v4.1h33.4v-66.8h-52.7l-1-1
		c-1.4-1.4-40.1-40.1-60.4-60.4l-2.1-2.1l-65.6,65.6l1.4,1.4c0.6,0.6,59.3,59.3,61.1,61.1l1,1V390.5z M-164.1,386.4h-58.6V276.3
		h58.6V386.4z M-221.7,385.4h56.6V277.3h-56.6V385.4z M-226.8,332l-9.8-9.8c-9.3-9.3-33.1-33.1-40-40l-6-6h55.8V332z M-280.1,277.3
		l4.3,4.3c6.9,6.9,30.6,30.6,40,40l8.1,8.1v-52.3H-280.1z M-166.9,272.2h-55.8v-55.8l6,6c7.5,7.5,35.5,35.5,43.8,43.8L-166.9,272.2z
		 M-221.7,271.2h52.3l-4.3-4.3c-8.3-8.2-36.3-36.3-43.8-43.8l-4.3-4.3V271.2z M-226.8,272.2h-55.8l6-6c0.4-0.4,35.5-35.4,43.8-43.8
		l6-6V272.2z M-280.1,271.2h52.3v-52.3l-4.3,4.3c-8.3,8.3-43.4,43.4-43.8,43.8L-280.1,271.2z"/>
</g>
</svg>
